<?xml version="1.0" encoding="UTF-8" standalone="no"?>
<!DOCTYPE svg PUBLIC "-//W3C//DTD SVG 1.1//EN"
 "http://www.w3.org/Graphics/SVG/1.1/DTD/svg11.dtd">
<!-- Generated by graphviz version 12.1.0 (20240811.2233)
 -->
<!-- Title: G Pages: 1 -->
<svg width="705pt" height="206pt"
 viewBox="0.00 0.00 704.50 206.00" xmlns="http://www.w3.org/2000/svg" xmlns:xlink="http://www.w3.org/1999/xlink">
<g id="graph0" class="graph" transform="scale(1 1) rotate(0) translate(4 202)">
<title>G</title>
<polygon fill="white" stroke="none" points="-4,4 -4,-202 700.5,-202 700.5,4 -4,4"/>
<!-- data.azapi_resource_list.list_dbservers_by_cloudexadata_infrastructure -->
<g id="node1" class="node">
<title>data.azapi_resource_list.list_dbservers_by_cloudexadata_infrastructure</title>
<polygon fill="none" stroke="black" points="445,-36 0,-36 0,0 445,0 445,-36"/>
<text text-anchor="middle" x="222.5" y="-12.2" font-family="sans-serif" font-size="14.00">data.azapi_resource_list.list_dbservers_by_cloudexadata_infrastructure</text>
</g>
<!-- data.azurerm_client_config.telemetry -->
<g id="node2" class="node">
<title>data.azurerm_client_config.telemetry</title>
<polygon fill="none" stroke="black" points="341.88,-198 103.12,-198 103.12,-162 341.88,-162 341.88,-198"/>
<text text-anchor="middle" x="222.5" y="-174.2" font-family="sans-serif" font-size="14.00">data.azurerm_client_config.telemetry</text>
</g>
<!-- data.modtm_module_source.telemetry -->
<g id="node3" class="node">
<title>data.modtm_module_source.telemetry</title>
<polygon fill="none" stroke="black" points="347.12,-144 97.88,-144 97.88,-108 347.12,-108 347.12,-144"/>
<text text-anchor="middle" x="222.5" y="-120.2" font-family="sans-serif" font-size="14.00">data.modtm_module_source.telemetry</text>
</g>
<!-- azapi_resource.odaa_vm_cluster -->
<g id="node4" class="node">
<title>azapi_resource.odaa_vm_cluster</title>
<polygon fill="none" stroke="black" points="696.5,-36 481,-36 481,0 696.5,0 696.5,-36"/>
<text text-anchor="middle" x="588.75" y="-12.2" font-family="sans-serif" font-size="14.00">azapi_resource.odaa_vm_cluster</text>
</g>
<!-- azapi_resource.odaa_vm_cluster&#45;&gt;data.azapi_resource_list.list_dbservers_by_cloudexadata_infrastructure -->
<g id="edge1" class="edge">
<title>azapi_resource.odaa_vm_cluster&#45;&gt;data.azapi_resource_list.list_dbservers_by_cloudexadata_infrastructure</title>
<path fill="none" stroke="black" d="M480.92,-18C473.06,-18 464.97,-18 456.72,-18"/>
<polygon fill="black" stroke="black" points="456.9,-14.5 446.9,-18 456.9,-21.5 456.9,-14.5"/>
</g>
<!-- modtm_telemetry.telemetry -->
<g id="node5" class="node">
<title>modtm_telemetry.telemetry</title>
<polygon fill="none" stroke="black" points="679.62,-144 497.88,-144 497.88,-108 679.62,-108 679.62,-144"/>
<text text-anchor="middle" x="588.75" y="-120.2" font-family="sans-serif" font-size="14.00">modtm_telemetry.telemetry</text>
</g>
<!-- modtm_telemetry.telemetry&#45;&gt;data.azurerm_client_config.telemetry -->
<g id="edge2" class="edge">
<title>modtm_telemetry.telemetry&#45;&gt;data.azurerm_client_config.telemetry</title>
<path fill="none" stroke="black" d="M497.67,-143.97C480.23,-147.18 462.07,-150.35 445,-153 415.34,-157.61 383.34,-161.9 353.14,-165.65"/>
<polygon fill="black" stroke="black" points="353.1,-162.12 343.6,-166.82 353.95,-169.07 353.1,-162.12"/>
</g>
<!-- modtm_telemetry.telemetry&#45;&gt;data.modtm_module_source.telemetry -->
<g id="edge3" class="edge">
<title>modtm_telemetry.telemetry&#45;&gt;data.modtm_module_source.telemetry</title>
<path fill="none" stroke="black" d="M497.71,-126C455.87,-126 405.22,-126 358.9,-126"/>
<polygon fill="black" stroke="black" points="359.05,-122.5 349.05,-126 359.05,-129.5 359.05,-122.5"/>
</g>
<!-- random_uuid.telemetry -->
<g id="node6" class="node">
<title>random_uuid.telemetry</title>
<polygon fill="none" stroke="black" points="300.25,-90 144.75,-90 144.75,-54 300.25,-54 300.25,-90"/>
<text text-anchor="middle" x="222.5" y="-66.2" font-family="sans-serif" font-size="14.00">random_uuid.telemetry</text>
</g>
<!-- modtm_telemetry.telemetry&#45;&gt;random_uuid.telemetry -->
<g id="edge4" class="edge">
<title>modtm_telemetry.telemetry&#45;&gt;random_uuid.telemetry</title>
<path fill="none" stroke="black" d="M497.67,-108.03C480.23,-104.82 462.07,-101.65 445,-99 401.26,-92.21 352.44,-86.1 311.79,-81.42"/>
<polygon fill="black" stroke="black" points="312.39,-77.96 302.06,-80.31 311.6,-84.92 312.39,-77.96"/>
</g>
</g>
</svg>
